<?xml version="1.0" encoding="iso-8859-1"?>
<!-- Generator: Adobe Illustrator 19.0.0, SVG Export Plug-In . SVG Version: 6.00 Build 0)  -->
<svg version="1.1" id="Capa_1" xmlns="http://www.w3.org/2000/svg" xmlns:xlink="http://www.w3.org/1999/xlink" x="0px" y="0px"
	 viewBox="0 0 512 512" style="enable-background:new 0 0 512 512;" xml:space="preserve">
<g>
	<g>
		<path d="M480.452,72.146H31.548C14.152,72.146,0,86.298,0,103.694v272.548c0,17.396,14.152,31.549,31.548,31.549h64.645v17.064
			H79.645c-4.142,0-7.5,3.358-7.5,7.5c0,4.142,3.358,7.5,7.5,7.5h352.71c4.142,0,7.5-3.358,7.5-7.5c0-4.142-3.358-7.5-7.5-7.5
			h-16.548V407.79h64.645c17.396,0,31.548-14.153,31.548-31.549V103.694C512,86.298,497.848,72.146,480.452,72.146z
			 M480.452,392.792h-88.178c-4.142,0-7.5,3.358-7.5,7.5c0,4.142,3.358,7.5,7.5,7.5h8.533v17.064H111.193v-17.064h249.019
			c4.142,0,7.5-3.358,7.5-7.5c0-4.142-3.358-7.5-7.5-7.5H31.548c-9.125,0-16.548-7.424-16.548-16.549V103.694
			c0-9.125,7.423-16.548,16.548-16.548h448.903c9.125,0,16.548,7.424,16.548,16.548v272.549H497
			C497,385.368,489.577,392.792,480.452,392.792z"/>
	</g>
</g>
<g>
	<g>
		<path d="M264.016,360.727h-8.532v-96.71c0-12.976-10.557-23.532-23.532-23.532h-72.661v-17.064h24.564
			c28.112,0,51.401-20.977,55.077-48.097h1.036c4.142,0,7.5-3.358,7.5-7.5c0-4.142-3.358-7.5-7.5-7.5h-1.036
			c-3.675-27.12-26.965-48.097-55.077-48.097h-64.129c-28.112,0-51.401,20.977-55.077,48.097h-1.036c-4.142,0-7.5,3.358-7.5,7.5
			c0,4.142,3.358,7.5,7.5,7.5h1.036c3.675,27.12,26.965,48.097,55.077,48.097h24.565v17.064h-8.535c-4.142,0-7.5,3.358-7.5,7.5
			c0,4.142,3.358,7.5,7.5,7.5h96.196c4.705,0,8.532,3.828,8.532,8.532v2.437l-67.162,20.148
			c-3.654-8.266-11.927-14.052-21.531-14.052s-17.877,5.786-21.531,14.052l-67.163-20.149v-2.437c0-4.705,3.828-8.532,8.532-8.532
			h32.063c4.142,0,7.5-3.358,7.5-7.5c0-4.142-3.358-7.5-7.5-7.5H71.629c-12.976,0-23.532,10.557-23.532,23.532v96.71h-8.532
			c-4.142,0-7.5,3.358-7.5,7.5c0,4.142,3.358,7.5,7.5,7.5h224.452c4.142,0,7.5-3.358,7.5-7.5
			C271.517,364.084,268.158,360.727,264.016,360.727z M119.726,208.421c-22.386-0.001-40.597-18.212-40.597-40.597
			s18.211-40.597,40.597-40.597h64.129c22.385,0,40.597,18.212,40.597,40.597s-18.211,40.597-40.597,40.597H119.726z
			 M151.791,287.548c4.705,0,8.532,3.828,8.532,8.532c0,4.704-3.828,8.532-8.532,8.532s-8.532-3.828-8.532-8.532
			C143.259,291.376,147.086,287.548,151.791,287.548z M80.161,288.064v72.662H63.097v-78.613l17.111,5.133
			C80.179,287.514,80.161,287.788,80.161,288.064z M208.42,360.727H95.161v-68.994l33.822,10.146
			c2.589,10.181,11.832,17.735,22.808,17.735s20.219-7.554,22.808-17.735l33.821-10.146V360.727z M240.484,360.727H223.42v-72.662
			c0-0.277-0.017-0.549-0.047-0.818l17.111-5.133V360.727z"/>
	</g>
</g>
<g>
	<g>
		<path d="M111.709,152.308c-4.142,0-7.5,3.358-7.5,7.5v16.032c0,4.142,3.358,7.5,7.5,7.5c4.142,0,7.5-3.358,7.5-7.5v-16.032
			C119.209,155.665,115.852,152.308,111.709,152.308z"/>
	</g>
</g>
<g>
	<g>
		<path d="M191.871,152.308c-4.142,0-7.5,3.358-7.5,7.5v16.032c0,4.142,3.358,7.5,7.5,7.5c4.142,0,7.5-3.358,7.5-7.5v-16.032
			C199.371,155.665,196.013,152.308,191.871,152.308z"/>
	</g>
</g>
<g>
	<g>
		<path d="M448.387,112.227H320.129c-12.976,0-23.532,10.557-23.532,23.533v20.941l-37.884,37.884
			c-2.145,2.145-2.787,5.371-1.626,8.173c1.161,2.803,3.896,4.63,6.929,4.63h32.581v8.532c0,12.976,10.557,23.532,23.532,23.532
			h128.258c12.976,0,23.532-10.557,23.532-23.532v-80.161C471.919,122.782,461.363,112.227,448.387,112.227z M456.919,215.92
			c0,4.705-3.828,8.532-8.532,8.532H320.129c-4.705,0-8.532-3.828-8.532-8.532v-16.032c0-4.142-3.358-7.5-7.5-7.5h-21.974
			l27.277-27.277c1.407-1.406,2.197-3.314,2.197-5.303v-24.048c0-4.705,3.828-8.533,8.532-8.533h128.258
			c4.705,0,8.532,3.828,8.532,8.533V215.92z"/>
	</g>
</g>
<g>
	<g>
		<path d="M424.339,152.308h-80.162c-4.142,0-7.5,3.358-7.5,7.5c0,4.142,3.358,7.5,7.5,7.5h80.162c4.142,0,7.5-3.358,7.5-7.5
			C431.839,155.665,428.481,152.308,424.339,152.308z"/>
	</g>
</g>
<g>
	<g>
		<path d="M440.371,272.548H328.145c-4.142,0-7.5,3.358-7.5,7.5c0,4.142,3.358,7.5,7.5,7.5h112.226c4.142,0,7.5-3.358,7.5-7.5
			C447.871,275.907,444.513,272.548,440.371,272.548z"/>
	</g>
</g>
<g>
	<g>
		<path d="M440.371,304.613h-64.129c-4.142,0-7.5,3.358-7.5,7.5c0,4.142,3.358,7.5,7.5,7.5h64.129c4.142,0,7.5-3.358,7.5-7.5
			C447.871,307.972,444.513,304.613,440.371,304.613z"/>
	</g>
</g>
<g>
	<g>
		<path d="M344.177,304.613h-16.032c-4.142,0-7.5,3.358-7.5,7.5c0,4.142,3.358,7.5,7.5,7.5h16.032c4.142,0,7.5-3.358,7.5-7.5
			C351.677,307.972,348.319,304.613,344.177,304.613z"/>
	</g>
</g>
<g>
	<g>
		<path d="M424.339,336.678h-48.097c-4.142,0-7.5,3.358-7.5,7.5c0,4.142,3.358,7.5,7.5,7.5h48.097c4.142,0,7.5-3.358,7.5-7.5
			C431.839,340.035,428.481,336.678,424.339,336.678z"/>
	</g>
</g>
<g>
	<g>
		<path d="M344.177,336.678h-16.032c-4.142,0-7.5,3.358-7.5,7.5c0,4.142,3.358,7.5,7.5,7.5h16.032c4.142,0,7.5-3.358,7.5-7.5
			C351.677,340.035,348.319,336.678,344.177,336.678z"/>
	</g>
</g>
<g>
	<g>
		<path d="M424.339,184.371h-80.162c-4.142,0-7.5,3.358-7.5,7.5c0,4.142,3.358,7.5,7.5,7.5h80.162c4.142,0,7.5-3.358,7.5-7.5
			C431.839,187.73,428.481,184.371,424.339,184.371z"/>
	</g>
</g>
<g>
</g>
<g>
</g>
<g>
</g>
<g>
</g>
<g>
</g>
<g>
</g>
<g>
</g>
<g>
</g>
<g>
</g>
<g>
</g>
<g>
</g>
<g>
</g>
<g>
</g>
<g>
</g>
<g>
</g>
</svg>
