<svg id="Layer_5" enable-background="new 0 0 64 64" height="512" viewBox="0 0 64 64" width="512" xmlns="http://www.w3.org/2000/svg"><g><path d="m53 19h8v2h-8z"/><path d="m51.097 9.433h8.001v2h-8.001z" transform="matrix(.924 -.383 .383 .924 .203 21.887)"/><path d="m7.903 6.433h2v8.001h-2z" transform="matrix(.383 -.924 .924 .383 -4.143 14.666)"/><path d="m3 19h8v2h-8z"/><path d="m51.256 28.386c-.363-.657-.761-1.302-1.197-1.933l-.207-.256c.747-2.038 1.148-4.214 1.148-6.442 0-10.341-8.414-18.755-18.756-18.755h-.488c-10.342 0-18.756 8.414-18.756 18.755 0 2.228.401 4.405 1.148 6.444l-.254.315c-.418.605-.802 1.227-1.154 1.864l-.525-1.266-7.392 3.062.766 1.848 6.732-2.788c-.819 1.649-1.447 3.383-1.831 5.209l-2.49.839v7.437l2.491.84c.56 2.666 1.591 5.162 3.073 7.435l-1.164 2.347 5.258 5.258 2.349-1.164c2.271 1.481 4.767 2.513 7.436 3.074l.839 2.491h7.436l.84-2.491c2.669-.561 5.164-1.593 7.436-3.074l2.349 1.164 5.258-5.258-1.164-2.349c1.482-2.273 2.514-4.769 3.073-7.435l2.49-.839v-7.437l-2.491-.84c-.382-1.819-1.011-3.552-1.837-5.211l6.738 2.791.766-1.848-7.392-3.062zm-19.5-25.386h.488c9.239 0 16.756 7.517 16.756 16.755 0 2.805-.709 5.52-2 7.925v-2.609c0-4.183-1.629-8.115-4.586-11.072-1.291-1.289-3.537-1.29-4.828 0-.207.207-.392.43-.586.646v-5.645h-2v-2h-2v2h-2v-4h-2v4h-2v-2h-2v2h-2v8.819l-6-1v10.861c-1.291-2.404-2-5.12-2-7.925 0-9.238 7.517-16.755 16.756-16.755zm3.244 8v6.425c-1.287 2.291-1.984 4.877-1.997 7.575h-2.003v-5.847l-6-1v-7.153zm6.854 22.482c-1.788 1.251-2.854 3.3-2.854 5.48v.038h-2v-14h-1.997c.003-.677.069-1.343.168-2h9.657c.104.681.172 1.37.172 2.071v5.54c-.914 1.075-1.965 2.044-3.146 2.871zm-2.854 13.518h-14v-2h14zm-16-4c-.552 0-1-.449-1-1s.448-1 1-1h18c.552 0 1 .449 1 1s-.448 1-1 1zm12-16v2h-10v-2zm-10 4h10v8h-2v-6h-6v6h-2v-.038zm6 8h-2v-4h2zm4.619-18c.648-2.086 1.793-3.998 3.381-5.585.535-.535 1.465-.535 2 0 1.588 1.588 2.733 3.5 3.381 5.586h-8.762zm-6.619-.153v4.153h-6v9.208c-.265-.261-.544-.509-.854-.726-1.181-.827-2.233-1.796-3.146-2.871v-11.43zm-8 14.273c1.252.877 2 2.313 2 3.842v.038c-1.654 0-3 1.346-3 3s1.346 3 3 3v3.315l4.143 5.919c-6.497-2.084-11.143-8.233-11.143-15.234 0-2.419.553-4.793 1.594-6.951.995 1.147 2.135 2.182 3.406 3.071zm4.921 13.88h12.158l-5.325 7.607c-.344.491-1.164.491-1.508 0zm15.079-.685v-3.315c1.654 0 3-1.346 3-3s-1.346-3-3-3v-.038c0-1.528.748-2.964 2-3.841 1.271-.89 2.411-1.924 3.406-3.072 1.041 2.158 1.594 4.532 1.594 6.951 0 7.001-4.646 13.15-11.143 15.234zm13-11.597v4.563l-2.238.755-.105.58c-.512 2.8-1.587 5.402-3.197 7.732l-.334.485 1.045 2.109-3.227 3.227-2.11-1.045-.484.335c-2.328 1.608-4.93 2.684-7.732 3.197l-.58.106-.756 2.238h-4.564l-.754-2.237-.58-.106c-2.803-.513-5.404-1.588-7.732-3.197l-.484-.335-2.11 1.045-3.227-3.227 1.045-2.109-.334-.485c-1.61-2.331-2.686-4.933-3.197-7.732l-.105-.58-2.24-.755v-4.563l2.238-.755.105-.58c.464-2.542 1.415-4.906 2.752-7.02.345.668.73 1.316 1.153 1.939-1.466 2.654-2.248 5.644-2.248 8.697 0 8.693 6.369 16.221 14.88 17.715l.727 1.039c.546.78 1.441 1.246 2.393 1.246s1.847-.466 2.393-1.246l.727-1.039c8.511-1.494 14.88-9.022 14.88-17.715 0-3.053-.782-6.043-2.249-8.698.422-.621.806-1.267 1.151-1.933 1.353 2.146 2.294 4.493 2.755 7.014l.105.58z"/><path d="m39 25h4v2h-4z"/><path d="m39 29h4v2h-4z"/><path d="m31 13h2v2h-2z"/><path d="m27 13h2v2h-2z"/></g></svg>